<?xml version="1.0" standalone="no"?>
<!DOCTYPE svg PUBLIC "-//W3C//DTD SVG 20010904//EN"
 "http://www.w3.org/TR/2001/REC-SVG-20010904/DTD/svg10.dtd">
<svg version="1.0" xmlns="http://www.w3.org/2000/svg"
 width="1316.000000pt" height="1316.000000pt" viewBox="0 0 1316.000000 1316.000000"
 preserveAspectRatio="xMidYMid meet">
<metadata>
Created by potrace 1.11, written by Peter Selinger 2001-2013
</metadata>
<g transform="translate(0.000000,1316.000000) scale(0.100000,-0.100000)"
fill="#000000" stroke="none">
<path d="M6010 11909 c-52 -4 -150 -10 -218 -14 -137 -6 -168 -14 -316 -86
-94 -45 -138 -74 -147 -96 -10 -24 -79 -53 -126 -53 -52 0 -125 -26 -246 -86
-38 -19 -73 -31 -79 -28 -6 4 -8 2 -5 -3 7 -11 -32 -42 -61 -48 -71 -15 -150
-57 -221 -118 -43 -37 -198 -193 -259 -260 -24 -27 -48 -45 -54 -41 -6 4 -8 3
-4 -4 8 -13 -39 -84 -49 -74 -5 4 -6 2 -2 -3 3 -6 -5 -27 -17 -47 -27 -46
-150 -160 -161 -150 -5 4 -5 1 0 -7 4 -7 3 -16 -2 -20 -14 -9 -106 -148 -133
-200 -12 -25 -33 -74 -47 -110 -13 -36 -27 -73 -30 -81 -3 -8 -7 -20 -9 -27
-20 -95 -49 -205 -66 -246 -76 -193 -118 -337 -157 -542 -82 -437 -89 -799
-26 -1420 6 -54 12 -98 35 -245 10 -69 26 -172 35 -229 22 -146 41 -231 70
-318 14 -42 23 -78 20 -81 -3 -3 -5 0 -5 6 0 7 -3 11 -7 10 -5 -1 -21 4 -38
11 -60 25 -149 40 -190 32 -53 -10 -76 -23 -113 -65 -16 -19 -33 -32 -37 -28
-3 3 -3 -2 1 -12 4 -11 3 -17 -2 -14 -5 4 -10 -4 -11 -15 0 -12 -9 -49 -18
-82 -25 -90 -23 -273 5 -405 27 -130 89 -317 142 -430 56 -122 82 -174 88
-180 12 -11 55 -105 52 -113 -1 -5 1 -6 6 -3 12 7 45 -52 36 -66 -4 -6 -3 -8
3 -5 6 4 29 -21 52 -56 22 -35 50 -73 61 -85 12 -12 18 -28 14 -35 -4 -6 -4
-9 0 -6 8 8 151 -132 148 -144 -2 -5 1 -6 6 -3 5 3 29 -5 53 -17 30 -15 62
-22 101 -22 l57 1 66 -196 c37 -107 72 -208 80 -225 7 -16 30 -73 51 -125 21
-52 47 -111 58 -130 11 -19 21 -41 21 -50 0 -8 5 -14 11 -13 6 1 17 -10 25
-25 14 -27 66 -97 106 -141 12 -14 20 -28 17 -33 -3 -5 -2 -7 3 -6 13 4 65
-51 58 -62 -3 -5 0 -8 7 -5 7 2 38 -26 68 -62 30 -36 65 -75 78 -88 14 -14 20
-29 16 -41 -4 -13 -3 -15 3 -6 10 13 20 3 191 -182 34 -37 59 -72 56 -78 -4
-6 -3 -8 3 -5 5 3 24 -9 41 -28 l32 -33 1 -244 c0 -133 4 -283 8 -333 7 -84 1
-112 -20 -99 -4 2 -10 0 -14 -6 -9 -15 -126 -71 -155 -75 -14 -2 -61 -6 -104
-10 -71 -5 -118 -18 -351 -95 -445 -147 -564 -186 -690 -226 -264 -83 -619
-223 -800 -317 -121 -62 -195 -107 -242 -144 -23 -18 -44 -33 -47 -33 -4 0
-22 -14 -41 -31 -43 -40 -75 -62 -75 -53 0 3 -7 1 -15 -6 -8 -7 -13 -15 -11
-19 3 -4 -11 -22 -30 -40 -19 -19 -34 -38 -34 -43 0 -5 -5 -6 -10 -3 -6 4 -9
2 -8 -3 2 -5 -23 -46 -56 -92 -32 -46 -63 -94 -69 -107 -5 -12 -14 -20 -20
-16 -6 3 -7 1 -3 -6 4 -7 -12 -37 -38 -73 -25 -34 -46 -71 -46 -82 0 -17 -2
-18 -10 -6 -8 12 -10 11 -8 -5 3 -39 -2 -56 -14 -49 -6 4 -8 3 -5 -4 10 -15
-3 -43 -16 -35 -6 3 -7 1 -3 -6 4 -7 1 -26 -7 -44 -32 -69 -145 -335 -161
-380 -11 -28 -22 -44 -28 -41 -6 4 -8 2 -5 -3 8 -12 -42 -155 -52 -149 -3 2
-6 -6 -7 -17 -2 -35 -140 -388 -149 -379 -5 4 -5 1 -1 -6 4 -7 -13 -74 -37
-150 -75 -229 -119 -402 -133 -524 l-7 -58 4942 0 c4702 0 4942 1 4937 18 -5
15 -27 108 -40 172 -44 202 -217 765 -331 1075 -29 82 -51 153 -48 158 4 6 1
7 -7 2 -10 -6 -12 -3 -7 14 3 13 3 20 -1 17 -9 -10 -64 133 -56 146 4 6 3 8
-3 5 -5 -3 -20 19 -33 49 -12 31 -34 69 -48 86 -21 24 -23 31 -11 39 9 6 10 9
2 9 -22 0 -53 43 -48 64 3 12 2 15 -1 8 -4 -8 -29 21 -65 75 -80 120 -87 130
-137 196 -24 32 -40 62 -36 69 4 6 3 8 -4 4 -13 -8 -73 64 -65 78 3 6 2 7 -2
3 -5 -4 -36 19 -69 51 -51 49 -227 182 -240 182 -3 0 -41 23 -85 50 -44 28
-83 50 -85 50 -11 0 -165 77 -162 81 2 2 -5 5 -17 5 -12 1 -51 15 -87 32 -36
16 -92 39 -125 52 -33 12 -65 26 -72 32 -7 6 -13 8 -13 4 0 -5 -74 21 -125 44
-29 13 -326 105 -425 131 -47 13 -87 27 -88 31 -2 5 -8 5 -13 2 -6 -3 -22 -1
-37 4 -15 6 -82 23 -149 38 -68 15 -123 32 -123 36 0 5 -4 7 -10 3 -18 -11
-323 73 -314 86 3 5 -3 6 -12 2 -12 -4 -15 -3 -10 5 4 7 2 10 -7 6 -7 -2 -36
6 -63 20 -27 13 -71 30 -99 37 -27 6 -56 16 -62 22 -21 15 -162 37 -248 37
-50 0 -86 5 -93 12 -9 9 -12 89 -12 299 l0 286 66 71 c37 40 70 69 75 66 5 -3
6 3 2 12 -5 13 -3 16 10 11 10 -4 14 -2 11 6 -5 13 99 120 109 112 4 -3 5 -2
2 1 -2 4 8 18 23 33 52 50 178 196 226 264 27 38 52 64 58 60 7 -3 8 -1 4 5
-4 7 13 40 37 74 24 35 66 104 92 153 26 50 55 98 63 108 8 9 12 17 8 17 -3 0
5 21 19 47 14 27 25 52 25 57 0 5 9 19 19 30 34 37 181 445 181 502 0 8 10 14
26 14 63 0 207 53 235 86 7 8 18 13 25 10 8 -3 13 -2 11 2 -1 4 21 27 48 52
79 72 114 112 179 207 27 40 52 70 56 68 4 -3 7 1 7 8 -1 6 28 71 63 142 35
72 65 135 66 140 1 6 13 44 27 85 15 41 31 95 37 120 28 117 50 230 61 317 15
122 8 375 -13 423 -8 19 -13 41 -10 49 3 9 0 11 -8 6 -10 -6 -12 -3 -6 11 4
10 4 15 0 11 -4 -4 -17 2 -29 13 -31 29 -72 38 -125 28 -51 -9 -195 -77 -254
-120 -22 -15 -41 -26 -43 -24 -2 2 0 23 6 47 5 24 15 86 22 137 7 50 16 92 21
92 4 0 5 6 2 13 -3 8 4 47 15 88 28 103 57 293 76 499 8 96 18 186 20 200 26
134 37 808 15 891 -13 46 -46 224 -66 349 -21 137 -39 207 -74 294 -17 43 -27
82 -24 88 4 6 3 8 -3 5 -12 -7 -56 106 -72 188 -7 33 -15 71 -19 85 -3 14 -4
31 -3 39 1 7 -2 10 -7 7 -6 -3 -24 29 -42 71 -27 66 -125 215 -148 225 -4 2
-44 51 -90 111 -53 69 -76 107 -66 107 11 0 14 5 9 18 -3 9 -9 28 -12 42 -2
14 -18 41 -34 59 -16 18 -26 38 -22 44 3 6 1 7 -5 3 -7 -4 -12 -2 -12 5 0 7
-3 10 -6 6 -3 -3 -20 11 -37 30 -44 50 -257 227 -365 304 -50 35 -93 71 -95
81 -3 9 -54 40 -119 71 -109 51 -136 74 -121 100 3 7 3 9 -2 5 -5 -5 -13 2
-19 14 -10 20 -40 29 -231 72 -121 27 -222 52 -225 56 -3 4 -15 10 -27 14 -12
4 -39 23 -60 43 l-37 36 22 15 c25 16 28 34 9 50 -7 6 -64 16 -127 22 -220 21
-275 29 -287 46 -25 34 -283 41 -543 15 -50 -5 -77 -4 -82 3 -5 8 -8 7 -8 -1
0 -19 -38 -11 -43 9 -6 20 -10 20 -167 7z"/>
<path d="M4085 10850 c-3 -6 1 -7 9 -4 18 7 21 14 7 14 -6 0 -13 -4 -16 -10z"/>
<path d="M4899 4213 c-13 -16 -12 -17 4 -4 9 7 17 15 17 17 0 8 -8 3 -21 -13z"/>
<path d="M4888 3263 c7 -3 16 -2 19 1 4 3 -2 6 -13 5 -11 0 -14 -3 -6 -6z"/>
</g>
</svg>
